<?xml version="1.0"?>
<svg xmlns="http://www.w3.org/2000/svg" xmlns:xlink="http://www.w3.org/1999/xlink" xmlns:svgjs="http://svgjs.com/svgjs" version="1.1" width="512" height="512" x="0" y="0" viewBox="0 0 64 64" style="enable-background:new 0 0 512 512" xml:space="preserve" class=""><g><g xmlns="http://www.w3.org/2000/svg" fill="#c4a2fc"><path d="m60 39h-4a1 1 0 0 0 -1 1v23h7a1 1 0 0 0 1-1v-20a3 3 0 0 0 -3-3z" fill="#ffa200" data-original="#c4a2fc" style="" class=""/><path d="m24 39h-4a3 3 0 0 0 -3 3v20a1 1 0 0 0 1 1h7v-23a1 1 0 0 0 -1-1z" fill="#ffa200" data-original="#c4a2fc" style="" class=""/><path d="m34 38h12v2h-12z" fill="#ffa200" data-original="#c4a2fc" style="" class=""/><path d="m34 47h12v2h-12z" fill="#ffa200" data-original="#c4a2fc" style="" class=""/><path d="m38 56h4v7h-4z" fill="#ffa200" data-original="#c4a2fc" style="" class=""/><path d="m34 29h12v2h-12z" fill="#ffa200" data-original="#c4a2fc" style="" class=""/><path d="m50 22h-20a3 3 0 0 0 -3 3v38h9v-8a1 1 0 0 1 1-1h6a1 1 0 0 1 1 1v8h9v-38a3 3 0 0 0 -3-3zm-2 28a1 1 0 0 1 -1 1h-14a1 1 0 0 1 -1-1v-4a1 1 0 0 1 1-1h14a1 1 0 0 1 1 1zm0-9a1 1 0 0 1 -1 1h-14a1 1 0 0 1 -1-1v-4a1 1 0 0 1 1-1h14a1 1 0 0 1 1 1zm0-9a1 1 0 0 1 -1 1h-14a1 1 0 0 1 -1-1v-4a1 1 0 0 1 1-1h14a1 1 0 0 1 1 1z" fill="#ffa200" data-original="#c4a2fc" style="" class=""/></g><path xmlns="http://www.w3.org/2000/svg" d="m40 6h-12v-2a3 3 0 0 0 -3-3h-6a3 3 0 0 0 -3 3v2h-12a3 3 0 0 0 -3 3v39a3 3 0 0 0 3 3h36a3 3 0 0 0 3-3v-39a3 3 0 0 0 -3-3zm-22-2a1 1 0 0 1 1-1h6a1 1 0 0 1 1 1v3a3 3 0 0 1 -3 3h-2a3 3 0 0 1 -3-3zm23 44a1 1 0 0 1 -1 1h-36a1 1 0 0 1 -1-1v-39a1 1 0 0 1 1-1h12.1a5.009 5.009 0 0 0 4.9 4h2a5.009 5.009 0 0 0 4.9-4h12.1a1 1 0 0 1 1 1z" fill="#021344" data-original="#151a6a" style="" class=""/><path xmlns="http://www.w3.org/2000/svg" d="m35 14h-26a3 3 0 0 0 -3 3v16a3 3 0 0 0 3 3h26a3 3 0 0 0 3-3v-16a3 3 0 0 0 -3-3zm-16 9a3 3 0 1 1 3 3 3 3 0 0 1 -3-3zm-3.92 11a6.991 6.991 0 0 1 13.84 0zm20.92-1a1 1 0 0 1 -1 1h-4.059a9.017 9.017 0 0 0 -5.564-7.337 5 5 0 1 0 -6.754 0 9.017 9.017 0 0 0 -5.564 7.337h-4.059a1 1 0 0 1 -1-1v-16a1 1 0 0 1 1-1h26a1 1 0 0 1 1 1z" fill="#021344" data-original="#151a6a" style="" class=""/><path xmlns="http://www.w3.org/2000/svg" d="m36 39h-28a1 1 0 0 0 0 2h28a1 1 0 0 0 0-2z" fill="#021344" data-original="#151a6a" style="" class=""/><path xmlns="http://www.w3.org/2000/svg" d="m31 44h-18a1 1 0 0 0 0 2h18a1 1 0 0 0 0-2z" fill="#021344" data-original="#151a6a" style="" class=""/></g></svg>
